<svg xmlns="http://www.w3.org/2000/svg" xmlns:xlink="http://www.w3.org/1999/xlink" viewBox="0 0 25.627 26"><defs><style>.a,.d{fill:none;}.a{stroke:#08cb00;}.b{fill:#08cb00;}.c{stroke:none;}.e{filter:url(#a);}</style><filter id="a" x="0" y="0" width="25.627" height="26" filterUnits="userSpaceOnUse"><feOffset dy="3" input="SourceAlpha"/><feGaussianBlur stdDeviation="3" result="b"/><feFlood flood-opacity="0.2"/><feComposite operator="in" in2="b"/><feComposite in="SourceGraphic"/></filter></defs><g transform="translate(-1270 -700)"><g class="a" transform="translate(1273 700)"><circle class="c" cx="9.5" cy="9.5" r="9.5"/><circle class="d" cx="9.5" cy="9.5" r="9"/></g><g class="e" transform="matrix(1, 0, 0, 1, 1270, 700)"><path class="b" d="M8.161,12.8a.8.8,0,0,1-.635-.316l-2.042-2.7a.8.8,0,0,1,1.27-.961L8.1,10.6l3.378-5.424a.8.8,0,0,1,1.353.843L8.838,12.421a.794.794,0,0,1-.64.375H8.162Z" transform="translate(3.68 1.2)"/></g></g></svg>