<svg xmlns="http://www.w3.org/2000/svg" viewBox="0 0 21.871 21.871"><defs><style>.a{fill:#d90303;}</style></defs><circle class="a" cx="0.854" cy="0.854" r="0.854" transform="translate(15.634 8.116)"/><path class="a" d="M18.454,1.709H17.343V.854a.854.854,0,0,0-1.709,0v.854H11.747V.854a.854.854,0,0,0-1.709,0v.854H6.194V.854a.854.854,0,1,0-1.709,0v.854H3.417A3.421,3.421,0,0,0,0,5.126V18.454a3.421,3.421,0,0,0,3.417,3.417H9.953a.854.854,0,1,0,0-1.709H3.417a1.711,1.711,0,0,1-1.709-1.709V5.126A1.711,1.711,0,0,1,3.417,3.417H4.485v.854a.854.854,0,0,0,1.709,0V3.417h3.845v.854a.854.854,0,0,0,1.709,0V3.417h3.887v.854a.854.854,0,0,0,1.709,0V3.417h1.111a1.711,1.711,0,0,1,1.709,1.709V10a.854.854,0,1,0,1.709,0V5.126A3.421,3.421,0,0,0,18.454,1.709Z"/><path class="a" d="M275.169,270a5.169,5.169,0,1,0,5.169,5.169A5.175,5.175,0,0,0,275.169,270Zm0,8.629a3.46,3.46,0,1,1,3.46-3.46A3.464,3.464,0,0,1,275.169,278.629Z" transform="translate(-258.466 -258.466)"/><path class="a" d="M373.093,331.751h-.385v-.9a.854.854,0,1,0-1.709,0v1.751a.854.854,0,0,0,.854.854h1.239a.854.854,0,1,0,0-1.709Z" transform="translate(-355.152 -315.903)"/><circle class="a" cx="0.854" cy="0.854" r="0.854" transform="translate(11.918 8.116)"/><circle class="a" cx="0.854" cy="0.854" r="0.854" transform="translate(8.202 11.833)"/><circle class="a" cx="0.854" cy="0.854" r="0.854" transform="translate(4.485 8.116)"/><circle class="a" cx="0.854" cy="0.854" r="0.854" transform="translate(4.485 11.833)"/><circle class="a" cx="0.854" cy="0.854" r="0.854" transform="translate(4.485 15.549)"/><circle class="a" cx="0.854" cy="0.854" r="0.854" transform="translate(8.202 15.549)"/><circle class="a" cx="0.854" cy="0.854" r="0.854" transform="translate(8.202 8.116)"/></svg>