<svg xmlns="http://www.w3.org/2000/svg" viewBox="0 0 28.133 32.152"><defs><style>.a{fill:#fff;}</style></defs><path class="a" d="M30.113,6.851a3,3,0,0,0-2.994-2.829H24.1V3.015A3.015,3.015,0,0,0,21.09,0H11.043A3.014,3.014,0,0,0,8.028,3.015V4.021H5.014a3,3,0,0,0-3,2.829H2V9.044a2.01,2.01,0,0,0,2.009,2.009h0V28.134a4.019,4.019,0,0,0,4.019,4.019H24.1a4.019,4.019,0,0,0,4.019-4.019V11.053a2.01,2.01,0,0,0,2.009-2.009V6.851h-.02ZM10.038,3.016a1,1,0,0,1,1-1H21.09a1,1,0,0,1,1,1v1H10.038v-1ZM26.114,28.135A2.013,2.013,0,0,1,24.1,30.144H8.028a2.012,2.012,0,0,1-2.009-2.009V11.054H26.114Zm2.009-20.1v1H4.009V7.035a1,1,0,0,1,1-1h22.1a1,1,0,0,1,1,1Zm-19.09,20.1h2.009a1,1,0,0,0,1-1V14.072a1,1,0,0,0-1-1H9.033a1,1,0,0,0-1,1V27.134A1,1,0,0,0,9.033,28.139Zm0-14.067h2.009V27.133H9.033V14.071Zm6.028,14.067h2.009a1,1,0,0,0,1-1V14.072a1,1,0,0,0-1-1H15.062a1,1,0,0,0-1,1V27.134A1,1,0,0,0,15.062,28.139Zm0-14.067h2.009V27.133H15.062V14.071ZM21.09,28.139H23.1a1,1,0,0,0,1-1V14.072a1,1,0,0,0-1-1H21.09a1,1,0,0,0-1,1V27.134A1,1,0,0,0,21.09,28.139Zm0-14.067H23.1V27.133H21.09V14.071Z" transform="translate(-2 -0.001)"/></svg>