<svg xmlns="http://www.w3.org/2000/svg" viewBox="0 0 18 18"><defs><style>.a{fill:#66b979;}</style></defs><path class="a" d="M0,9A9,9,0,1,0,9,0,9,9,0,0,0,0,9ZM9,1a7.718,7.718,0,0,1,8,8,7.718,7.718,0,0,1-8,8A7.718,7.718,0,0,1,1,9,7.718,7.718,0,0,1,9,1ZM9,16a6.8,6.8,0,0,0,7-7A6.8,6.8,0,0,0,9,2,6.8,6.8,0,0,0,2,9a6.8,6.8,0,0,0,7,7ZM8,2V3c0,.155.845,0,1,0s0,.155,0,0V2a6.867,6.867,0,0,1,7,6H15c-.155,0,0,.845,0,1s-.155,0,0,0h1a7.193,7.193,0,0,1-7,7V15c0-.155.155,0,0,0s-1-.155-1,0v1A6.867,6.867,0,0,1,2,9H3c.155,0,0,.155,0,0s.155-1,0-1H2A6.45,6.45,0,0,1,8,2ZM5,13c.057,0-.049.035,0,0l4-2c.128.031-.138,0,0,0a2.273,2.273,0,0,0,2-2c0-.133.029.125,0,0l2-4c.08-.112.1.1,0,0s.113-.079,0,0L9,7c-.1-.019.1,0,0,0A2.273,2.273,0,0,0,7,9c0,.11-.02-.1,0,0L5,13c-.08.112-.1-.1,0,0C5.055,13.054,4.927,13,5,13ZM8,9A.924.924,0,0,1,9,8a.924.924,0,0,1,1,1,.924.924,0,0,1-1,1A.925.925,0,0,1,8,9Zm3-3L10,8c-.121-.169.174.115,0,0ZM8,10c.112.168-.163-.118,0,0L7,11Z"/></svg>