<svg xmlns="http://www.w3.org/2000/svg" viewBox="0 0 45 39.036"><defs><style>.a{fill:#fff;stroke:#fff;stroke-width:2px;}</style></defs><path class="a" d="M31.315,0a12.149,12.149,0,0,0-8,3,8.84,8.84,0,0,0-2,2,8.864,8.864,0,0,0-2-2,12.155,12.155,0,0,0-8-3c-6.381,0-11,5.619-11,12a14.986,14.986,0,0,0,4,11c4.562,5.323,16.511,13.656,17,14,.1.071-.116,0,0,0s-.1.071,0,0c.489-.344,12.437-8.677,17-14,3.138-3.662,5-6.693,5-11A12.331,12.331,0,0,0,31.315,0Zm6,22c-4.044,4.717-14.043,12.607-16,14-1.957-1.393-11.957-9.283-16-14-2.945-3.436-4-5.994-4-10,0-5.743,4.258-11,10-11a10.746,10.746,0,0,1,7,3c.97.879,2.419,1.834,3,3a.571.571,0,0,0,1,0,9.056,9.056,0,0,1,2-3,10.74,10.74,0,0,1,7-3c5.742,0,10,5.257,10,11C41.315,16.006,40.259,18.564,37.315,22Z" transform="translate(0.685 1)"/></svg>