<svg xmlns="http://www.w3.org/2000/svg" viewBox="0 0 43.565 43.408"><defs><style>.a{fill:#fff;}</style></defs><g transform="translate(0.404 0.404)"><path class="a" d="M83.41,23.012h3c1.816-.153,2.973-1.493,4-3l2-2a12.607,12.607,0,0,0,2-9,4.181,4.181,0,0,0-1-2c-.458-.406-.389.029-1,0-3.112-.149-6.655-.05-9,2l-2,3c-1.373,1.2-3.066,3.178-3,5h0l1,2a4.332,4.332,0,0,1-1,3l-21,21a5.178,5.178,0,0,0-1,3,2.374,2.374,0,0,0,1,2,2.85,2.85,0,0,0,2,1c.093,0,.907.008,1,0a2.636,2.636,0,0,0,2-1l19-23C82.038,24.24,82.417,23.075,83.41,23.012Zm-3,1-19,23c-.289.353-.482.959-1,1a3.612,3.612,0,0,1-2-1c-.443-.393-.975-.382-1-1a4.4,4.4,0,0,1,1-2l21-21c.943-.976,1.077-2.645,1-4v-2c-.049-1.426-.075-3.06,1-4l3-3c2.09-1.827,5.227-2.132,8-2,.316.015-.237-.21,0,0s.947.689,1,1a11.315,11.315,0,0,1-2,8l-2,3a3.773,3.773,0,0,1-3,2h-3C82.055,22.1,81.267,22.957,80.41,24.012Zm0,0" transform="translate(-51.41 -6.012)"/><path class="a" d="M307.144,299.633l-14-13a.707.707,0,0,0-1,1l14,13a4.4,4.4,0,0,1,1,2c.012.618-.581.581-1,1s-.38,1.013-1,1a4.423,4.423,0,0,1-2-1l-12-13c-.242-.266-.735-1.242-1-1a.752.752,0,0,0,0,1l12,14a5.222,5.222,0,0,0,3,1h0a2.476,2.476,0,0,0,2-1,2.375,2.375,0,0,0,1-2A5.206,5.206,0,0,0,307.144,299.633Zm0,0" transform="translate(-265.144 -262.633)"/><path class="a" d="M8,17.5a6.674,6.674,0,0,0,4,2h2a4.346,4.346,0,0,1,3,1l1,1c.128.141.823,0,1,0,.156,0-.124.114,0,0a.752.752,0,0,0,0-1l-1-1a6.335,6.335,0,0,0-4-2H12a4.391,4.391,0,0,1-3-1l-8-9c-.075-.09-.083.083,0,0a5.831,5.831,0,0,1,1,0c.035,0-.057-.057,0,0l6,7a2.5,2.5,0,0,0,3,0l1-1h0l1-1h0l1-1a2.5,2.5,0,0,0,0-3l-7-6a1.94,1.94,0,0,1,0-1c.083-.083-.09-.075,0,0l9,8a4.389,4.389,0,0,1,1,3v2a6.335,6.335,0,0,0,2,4l1,1a.707.707,0,0,0,1-1l-1-1a4.342,4.342,0,0,1-1-3v-2s0,0,0,0a6.674,6.674,0,0,0-2-4c-.019-.02.021.018,0,0L8,.5a1.439,1.439,0,0,0-2,0,2.745,2.745,0,0,0,0,3l7,6a1.109,1.109,0,0,1,0,1h0l-8-7a.751.751,0,0,0-1,0,.752.752,0,0,0,0,1l8,7-1,1-7-8a.752.752,0,0,0-1,0,.751.751,0,0,0,0,1l7,8h0a1.109,1.109,0,0,1-1,0l-6-7c-.288-.288-.593,0-1,0s-1.712-.288-2,0a1.439,1.439,0,0,0,0,2l8,9C8.018,17.52,7.98,17.481,8,17.5Zm0,0" transform="translate(-0.001 -0.499)"/></g></svg>