<svg xmlns="http://www.w3.org/2000/svg" viewBox="0 0 46 43"><defs><style>.a{fill:#66b979;}</style></defs><path class="a" d="M36.946,231.039h29c2.949.047,5.944-2.051,6-5v-10c-.056-2.948-3.051-5.047-6-5h-29a4.784,4.784,0,0,0-5,5v10A4.783,4.783,0,0,0,36.946,231.039Zm-3-15c.056-2.105.894-3.048,3-3h29c2.106-.048,3.944.895,4,3v10c-.056,2.105-1.894,3.048-4,3h-29c-2.106.048-2.944-.895-3-3Zm0,0" transform="translate(-28.946 -191.039)"/><path class="a" d="M3,42v1H43V42a1.8,1.8,0,0,1,2-2h1V20H45a1.8,1.8,0,0,1-2-2V17H41l2-1-1-1c-.478-.453,0-1.341,0-2s-.478-.547,0-1l1-1L32,0,31,1a2.166,2.166,0,0,1-3,0L27,0,10,17H3v1a1.8,1.8,0,0,1-2,2H0V40H1A1.8,1.8,0,0,1,3,42ZM27,2a4.145,4.145,0,0,0,5,0l9,9a4.755,4.755,0,0,0,0,5l-2,1H37c.829-.813,2.009-1.84,2-3s-1.159-2.2-2-3L32,5a5.458,5.458,0,0,0-7,0L13,17H12Zm3,15H28a5.667,5.667,0,0,0-10,0H16L26,6a4.126,4.126,0,0,1,5,0l5,6a2.9,2.9,0,0,1,1,2,2.9,2.9,0,0,1-1,2l-1,1H32L29,7H28Zm-4,0H20c.721-.961,1.8-1,3-1S25.279,16.039,26,17ZM2,22a3.81,3.81,0,0,0,3-3H41a3.81,3.81,0,0,0,3,3V39a3.814,3.814,0,0,0-3,3H5a3.814,3.814,0,0,0-3-3Zm0,0"/><path class="a" d="M160.778,256.14l5-3,5,3-2-5,5-3h-6l-2-6-2,6h-6l5,3Zm2-7h2l1-2,1,2h2l-2,1,1,3-2-2-2,2,1-3Zm0,0" transform="translate(-142.778 -219.14)"/><path class="a" d="M66.765,256.136l2-1,6,13h-1Zm0,0" transform="translate(-60.765 -231.136)"/><path class="a" d="M324.191,260.748l7-13h1l-7,13Zm0,0" transform="translate(-293.191 -223.748)"/></svg>