<svg xmlns="http://www.w3.org/2000/svg" viewBox="0 0 29.229 29.229"><defs><style>.a{fill:#cbc8c8;}</style></defs><path class="a" d="M20.1,0H9.134A9.135,9.135,0,0,0,0,9.134V20.1a9.135,9.135,0,0,0,9.134,9.134H20.1A9.135,9.135,0,0,0,29.229,20.1V9.134A9.135,9.135,0,0,0,20.1,0Zm6.394,20.1A6.4,6.4,0,0,1,20.1,26.489H9.134A6.4,6.4,0,0,1,2.74,20.1V9.134A6.4,6.4,0,0,1,9.134,2.74H20.1a6.4,6.4,0,0,1,6.394,6.394Z"/><path class="a" d="M135.307,128a7.307,7.307,0,1,0,7.307,7.307A7.308,7.308,0,0,0,135.307,128Zm0,11.874a4.567,4.567,0,1,1,4.567-4.567A4.573,4.573,0,0,1,135.307,139.874Z" transform="translate(-120.693 -120.693)"/><ellipse class="a" cx="0.974" cy="0.974" rx="0.974" ry="0.974" transform="translate(21.496 5.786)"/></svg>