<svg xmlns="http://www.w3.org/2000/svg" viewBox="0 0 25 33.036"><defs><style>.a{fill:#66b979;}</style></defs><path class="a" d="M12.25,0a11.706,11.706,0,0,0-12,12c0,10.294,11.505,20.584,12,21,.1.082-.118,0,0,0a4.243,4.243,0,0,0,1,0c.495-.409,12-10.525,12-21,0-6.873-6.138-12-13-12Zm0,32c-1.909-1.706-11-11.127-11-20a10.729,10.729,0,0,1,11-11c6.289,0,12,4.7,12,11C24.25,21.024,14.164,30.317,12.25,32Zm0-26a5.856,5.856,0,0,0-6,6c0,3.431,2.569,7,6,7s6-3.569,6-7A5.856,5.856,0,0,0,12.25,6Zm0,12c-2.859,0-5-3.141-5-6a4.88,4.88,0,0,1,5-5,4.88,4.88,0,0,1,5,5C17.25,14.859,15.109,18,12.25,18Z" transform="translate(-0.25)"/></svg>