<svg xmlns="http://www.w3.org/2000/svg" xmlns:xlink="http://www.w3.org/1999/xlink" viewBox="0 0 15 19"><defs><style>.a{fill:none;stroke:#707070;}.b{clip-path:url(#a);}.c{fill:#f90000;}.d{fill:red;}.e{fill:#fdfcfc;font-size:15px;font-family:HelveticaNeue-Medium, Helvetica Neue;font-weight:500;}</style><clipPath id="a"><rect class="a" width="15" height="19" transform="translate(1354 289)"/></clipPath></defs><g transform="translate(-1329 -287)"><g class="b" transform="translate(-25 -2)"><circle class="c" cx="4" cy="4" r="4" transform="translate(1357 293)"/><path class="d" d="M8.3,18.607c-.964-.862-5.75-5.376-5.75-9.857a5.75,5.75,0,0,1,11.5,0C14.05,13.307,9.267,17.757,8.3,18.607Zm0-13.143A3.219,3.219,0,0,0,5.22,8.75a3.08,3.08,0,1,0,6.161,0A3.219,3.219,0,0,0,8.3,5.464ZM5.631,8.75a2.67,2.67,0,0,1,5.339,0C10.97,10.194,5.631,10.194,5.631,8.75Z" transform="translate(1353.45 288)"/><text class="e" transform="translate(1356 286)"><tspan x="1.33" y="15">e</tspan></text></g></g></svg>