<svg xmlns="http://www.w3.org/2000/svg" xmlns:xlink="http://www.w3.org/1999/xlink" viewBox="0 0 7 8"><defs><style>.a{fill:none;}.b{clip-path:url(#a);}.c{fill:#f90000;}.d{fill:red;}.e{fill:#fdfcfc;font-size:5px;font-family:HelveticaNeue-Medium, Helvetica Neue;font-weight:500;}</style><clipPath id="a"><rect class="a" width="7" height="8" transform="translate(1334 289)"/></clipPath></defs><g class="b" transform="translate(-1334 -289)"><circle class="c" cx="1.5" cy="1.5" r="1.5" transform="translate(1336 291)"/><path class="d" d="M4.519,8.172C4.189,7.887,2.55,6.391,2.55,4.906A1.936,1.936,0,0,1,4.519,3,1.936,1.936,0,0,1,6.488,4.906C6.488,6.416,4.85,7.89,4.519,8.172Zm0-4.355A1.082,1.082,0,0,0,3.464,4.906,1.025,1.025,0,0,0,4.519,5.926,1.025,1.025,0,0,0,5.574,4.906,1.082,1.082,0,0,0,4.519,3.817ZM3.6,4.906a.915.915,0,0,1,1.828,0C5.433,5.384,3.6,5.384,3.6,4.906Z" transform="translate(1333.114 287.716)"/><text class="e" transform="translate(1336 289)"><tspan x="0.11" y="5">e</tspan></text></g></svg>