<svg xmlns="http://www.w3.org/2000/svg" viewBox="0 0 29.128 21.871"><defs><style>.a{fill:#d90303;}</style></defs><g transform="translate(0 -63.779)"><g transform="translate(22.858 70.79)"><g transform="translate(0 0)"><circle class="a" cx="0.7" cy="0.7" r="0.7"/></g></g><g transform="translate(18.361 70.79)"><g transform="translate(0 0)"><circle class="a" cx="0.7" cy="0.7" r="0.7"/></g></g><g transform="translate(13.864 70.79)"><g transform="translate(0 0)"><circle class="a" cx="0.7" cy="0.7" r="0.7"/></g></g><g transform="translate(9.367 70.79)"><g transform="translate(0 0)"><circle class="a" cx="0.7" cy="0.7" r="0.7"/></g></g><g transform="translate(4.87 70.79)"><g transform="translate(0 0)"><circle class="a" cx="0.7" cy="0.7" r="0.7"/></g></g><g transform="translate(22.858 75.287)"><g transform="translate(0 0)"><circle class="a" cx="0.7" cy="0.7" r="0.7"/></g></g><g transform="translate(18.361 75.287)"><g transform="translate(0 0)"><circle class="a" cx="0.7" cy="0.7" r="0.7"/></g></g><g transform="translate(13.864 75.287)"><g transform="translate(0 0)"><circle class="a" cx="0.7" cy="0.7" r="0.7"/></g></g><g transform="translate(4.87 75.287)"><g transform="translate(0 0)"><circle class="a" cx="0.7" cy="0.7" r="0.7"/></g></g><g transform="translate(22.858 79.784)"><g transform="translate(0 0)"><circle class="a" cx="0.7" cy="0.7" r="0.7"/></g></g><g transform="translate(18.361 79.784)"><g transform="translate(0 0)"><circle class="a" cx="0.7" cy="0.7" r="0.7"/></g></g><g transform="translate(13.864 79.784)"><g transform="translate(0 0)"><circle class="a" cx="0.7" cy="0.7" r="0.7"/></g></g><g transform="translate(9.367 79.784)"><g transform="translate(0 0)"><circle class="a" cx="0.7" cy="0.7" r="0.7"/></g></g><g transform="translate(4.87 79.784)"><g transform="translate(0 0)"><circle class="a" cx="0.7" cy="0.7" r="0.7"/></g></g><g transform="translate(7.352 73.272)"><path class="a" d="M134.058,230.65h-4.226a.6.6,0,0,0-.6.6v4.226a.6.6,0,0,0,.6.6h4.226a.6.6,0,0,0,.6-.6v-4.226A.6.6,0,0,0,134.058,230.65Zm-.6,4.226h-3.023v-3.023h3.023v3.023Z" transform="translate(-129.23 -230.65)"/></g><g transform="translate(0 63.779)"><g transform="translate(0 0)"><path class="a" d="M27.122,65.22H22.7v-.773a.669.669,0,1,0-1.338,0v.773H17.722v-.773a.669.669,0,1,0-1.338,0v.773H12.744v-.773a.669.669,0,1,0-1.338,0v.773H7.765v-.773a.669.669,0,1,0-1.338,0v.773H2.006A2.009,2.009,0,0,0,0,67.227V83.644A2.009,2.009,0,0,0,2.006,85.65H27.122a2.009,2.009,0,0,0,2.006-2.006V67.227A2.009,2.009,0,0,0,27.122,65.22Zm0,19.092H2.006a.67.67,0,0,1-.669-.669V67.227a.67.67,0,0,1,.669-.669H6.427v.772a.669.669,0,1,0,1.338,0v-.772h3.641v.772a.669.669,0,1,0,1.338,0v-.772h3.641v.772a.669.669,0,1,0,1.338,0v-.772h3.641v.772a.669.669,0,1,0,1.338,0v-.772h4.421a.67.67,0,0,1,.669.669V83.644h0A.67.67,0,0,1,27.122,84.313Z" transform="translate(0 -63.779)"/></g></g></g></svg>