<svg xmlns="http://www.w3.org/2000/svg" viewBox="0 0 25.563 25.562"><defs><style>.a{fill:#d90303;}</style></defs><path class="a" d="M12.781,25.562A12.781,12.781,0,1,0,0,12.781,12.8,12.8,0,0,0,12.781,25.562ZM12.781.8A11.982,11.982,0,1,1,.8,12.781,12,12,0,0,1,12.781.8Zm3.244,16.59a.4.4,0,0,0,.566-.565l-3.81-3.809V7.444a.4.4,0,0,0-.8,0v5.736a.4.4,0,0,0,.117.283ZM2.4,12.781a.8.8,0,1,0,.8-.8A.8.8,0,0,0,2.4,12.781Zm19.172,0a.8.8,0,1,0,.8-.8A.8.8,0,0,0,21.568,12.781ZM11.982,3.2a.8.8,0,1,0,.8-.8A.8.8,0,0,0,11.982,3.2Zm0,19.172a.8.8,0,1,0,.8-.8A.8.8,0,0,0,11.982,22.367ZM5.592,6.391a.8.8,0,1,0,.8-.8A.8.8,0,0,0,5.592,6.391ZM18.373,19.172a.8.8,0,1,0,.8-.8A.8.8,0,0,0,18.373,19.172Zm.8-12.781a.8.8,0,1,0,.8-.8A.8.8,0,0,0,19.172,6.391ZM5.592,19.172a.8.8,0,1,0,.8-.8A.8.8,0,0,0,5.592,19.172Z"/></svg>