<svg xmlns="http://www.w3.org/2000/svg" viewBox="0 0 41.25 40"><defs><style>.a{fill:#d90303;}</style></defs><path class="a" d="M1.875,35h32.5a1.877,1.877,0,0,0,1.875-1.875V1.875A1.877,1.877,0,0,0,34.375,0H1.875A1.877,1.877,0,0,0,0,1.875v31.25A1.877,1.877,0,0,0,1.875,35ZM1.25,1.875a.626.626,0,0,1,.625-.625h32.5A.626.626,0,0,1,35,1.875v31.25a.626.626,0,0,1-.625.625H1.875a.626.626,0,0,1-.625-.625ZM22.5,13.75a2.5,2.5,0,1,0-2.5-2.5A2.5,2.5,0,0,0,22.5,13.75Zm0-3.75a1.25,1.25,0,1,1-1.25,1.25A1.251,1.251,0,0,1,22.5,10ZM4.375,28.75h27.5a.625.625,0,0,0,.625-.625V4.375a.625.625,0,0,0-.625-.625H4.375a.625.625,0,0,0-.625.625v23.75A.625.625,0,0,0,4.375,28.75ZM5,27.5V21.7a.613.613,0,0,0,.084-.056l6.4-6.395a.88.88,0,0,1,1.215,0l9.4,9.4a.627.627,0,0,0,.874.01l4.833-4.59a.855.855,0,0,1,.608-.252.846.846,0,0,1,.58.222l2.261,2.574V27.5H5ZM31.25,5V20.726L29.9,19.191a2.086,2.086,0,0,0-1.489-.619h0a2.088,2.088,0,0,0-1.481.608l-4.38,4.16-8.97-8.971a2.159,2.159,0,0,0-2.983,0L5,19.964V5H31.25ZM5.625,36.354A.625.625,0,0,0,5,36.979v1.146A1.877,1.877,0,0,0,6.875,40h32.5a1.877,1.877,0,0,0,1.875-1.875V5.625A1.877,1.877,0,0,0,39.375,3.75H38.229a.625.625,0,0,0,0,1.25h1.146A.626.626,0,0,1,40,5.625v32.5a.626.626,0,0,1-.625.625H6.875a.626.626,0,0,1-.625-.625V36.979A.625.625,0,0,0,5.625,36.354Z"/></svg>