<svg xmlns="http://www.w3.org/2000/svg" viewBox="0 0 31.741 31.741"><defs><style>.a{fill:#d90303;}</style></defs><path class="a" d="M.034,16.533a15.85,15.85,0,0,0,31.673,0,.489.489,0,0,0,.034-.167.463.463,0,0,0-.02-.1c0-.133.02-.263.02-.4A15.87,15.87,0,1,0,0,15.87c0,.134.017.264.02.4a.463.463,0,0,0-.02.1A.489.489,0,0,0,.034,16.533Zm24.685,6.025A21.743,21.743,0,0,0,20.538,21.3c.157-1.441.249-2.938.278-4.434h4.94A20.753,20.753,0,0,1,24.719,22.558Zm2.027-5.7H30.7a14.765,14.765,0,0,1-2.641,7.518,17.019,17.019,0,0,0-2.437-1.428,21.529,21.529,0,0,0,1.127-6.089ZM12.289,22.105a22.747,22.747,0,0,1,7.162,0c-.688,5.292-2.192,8.643-3.581,8.643S12.978,27.4,12.289,22.105Zm1.507,8.31c-2.729-.875-5.037-3.443-6.429-6.927a20.7,20.7,0,0,1,3.958-1.207c.455,3.468,1.287,6.489,2.472,8.135ZM12.175,10.622a24.232,24.232,0,0,0,3.7.289,24.232,24.232,0,0,0,3.7-.289,49.747,49.747,0,0,1,.272,5.248H11.9A49.748,49.748,0,0,1,12.175,10.622Zm7.649,6.24c-.028,1.513-.117,2.937-.258,4.256a23.8,23.8,0,0,0-7.391,0c-.172-1.613-.235-3.032-.258-4.256Zm.6,5.419a20.726,20.726,0,0,1,3.958,1.207c-1.393,3.485-3.7,6.053-6.429,6.927,1.183-1.646,2.016-4.667,2.472-8.135Zm.412-6.411a50.9,50.9,0,0,0-.292-5.426,21.814,21.814,0,0,0,4.181-1.261,20.993,20.993,0,0,1,1.07,6.686ZM20.418,9.46c-.456-3.468-1.287-6.49-2.473-8.135,2.729.875,5.037,3.443,6.429,6.927A20.624,20.624,0,0,1,20.418,9.46Zm-.966.176a23.226,23.226,0,0,1-3.582.284,23.226,23.226,0,0,1-3.582-.284C12.978,4.344,14.482.992,15.87.992S18.763,4.344,19.452,9.635Zm-8.13-.176A20.726,20.726,0,0,1,7.365,8.253c1.393-3.485,3.7-6.053,6.429-6.927-1.183,1.646-2.016,4.667-2.472,8.135Zm-.12.985a50.9,50.9,0,0,0-.292,5.426H5.951a21,21,0,0,1,1.07-6.687A21.816,21.816,0,0,0,11.2,10.445Zm-.278,6.418c.029,1.5.121,2.993.278,4.435a21.813,21.813,0,0,0-4.181,1.261,20.754,20.754,0,0,1-1.037-5.7Zm-4.8,6.089A17.1,17.1,0,0,0,3.684,24.38a14.762,14.762,0,0,1-2.641-7.518H4.994A21.564,21.564,0,0,0,6.12,22.952ZM4.278,25.174A16,16,0,0,1,6.467,23.88a14.436,14.436,0,0,0,4.152,5.895,14.928,14.928,0,0,1-6.341-4.6Zm16.843,4.6a14.42,14.42,0,0,0,4.152-5.895,16.1,16.1,0,0,1,2.189,1.294,14.911,14.911,0,0,1-6.341,4.6Zm5.66-13.9a21.776,21.776,0,0,0-1.161-7.081,17.112,17.112,0,0,0,2.437-1.428,14.789,14.789,0,0,1,2.691,8.509Zm.682-9.3a16.1,16.1,0,0,1-2.189,1.294,14.429,14.429,0,0,0-4.152-5.895,14.94,14.94,0,0,1,6.341,4.6Zm-16.844-4.6A14.42,14.42,0,0,0,6.467,7.862a16.042,16.042,0,0,1-2.189-1.3,14.918,14.918,0,0,1,6.341-4.6ZM3.684,7.361A17.046,17.046,0,0,0,6.12,8.789,21.776,21.776,0,0,0,4.959,15.87H.992A14.782,14.782,0,0,1,3.684,7.361Z"/></svg>