<svg xmlns="http://www.w3.org/2000/svg" xmlns:xlink="http://www.w3.org/1999/xlink" viewBox="0 0 333 328.03"><defs><style>.a{fill:#d90303;stroke:#fff;stroke-width:2px;}.b{filter:url(#a);}</style><filter id="a" x="0" y="0" width="333" height="328.03" filterUnits="userSpaceOnUse"><feOffset input="SourceAlpha"/><feGaussianBlur stdDeviation="49.5" result="b"/><feFlood/><feComposite operator="in" in2="b"/><feComposite in="SourceGraphic"/></filter></defs><g class="b" transform="matrix(1, 0, 0, 1, 0, 0)"><path class="a" d="M23.822-.167c-2.23,0-4.336,1.492-6,3-.632.572-.556.282-1,1-.444-.718-1.368-.427-2-1-1.664-1.507-3.77-3-6-3a9.006,9.006,0,0,0-9,9c0,3.352,1.557,6.15,4,9,3.55,4.143,12.619,10.733,13,11,.077.055-.09,0,0,0s-.077.055,0,0c.381-.267,9.449-6.857,13-11,2.442-2.85,4-5.648,4-9C33.822,3.867,28.788-.167,23.822-.167Zm5,17a107.358,107.358,0,0,1-12,11c-1.523-1.084-9.853-7.329-13-11a10.991,10.991,0,0,1-3-8,7.936,7.936,0,0,1,8-8,9.482,9.482,0,0,1,6,2c.755.684.548,2.092,1,3a.659.659,0,0,0,1,0,11.59,11.59,0,0,1,2-3,6.942,6.942,0,0,1,5-2c4.469,0,9,3.53,9,8C32.822,11.951,31.113,14.159,28.822,16.833Z" transform="translate(149.68 149.67)"/></g></svg>