<svg xmlns="http://www.w3.org/2000/svg" xmlns:xlink="http://www.w3.org/1999/xlink" viewBox="0 0 100 100"><defs><style>.a,.d{fill:none;}.a{stroke:#fdfcfc;stroke-width:3px;}.b{fill:#d90303;}.c{stroke:none;}.e{filter:url(#a);}</style><filter id="a" x="0" y="0" width="100" height="100" filterUnits="userSpaceOnUse"><feOffset dy="3" input="SourceAlpha"/><feGaussianBlur stdDeviation="3" result="b"/><feFlood flood-opacity="0.302"/><feComposite operator="in" in2="b"/><feComposite in="SourceGraphic"/></filter></defs><g transform="translate(-1536 -964)"><g class="e" transform="matrix(1, 0, 0, 1, 1536, 964)"><g class="a" transform="translate(9 6)"><circle class="c" cx="41" cy="41" r="41"/><circle class="d" cx="41" cy="41" r="39.5"/></g></g><path class="b" d="M24.308,31.575a1.275,1.275,0,0,1,0,1.792,1.244,1.244,0,0,1-1.774,0L8.195,18.885a1.275,1.275,0,0,1,0-1.792L22.534,2.61a1.246,1.246,0,0,1,1.774,0,1.275,1.275,0,0,1,0,1.792L11.23,17.989,24.308,31.574Z" transform="translate(1570.212 993.961)"/></g></svg>