<svg xmlns="http://www.w3.org/2000/svg" viewBox="0 0 49.173 43.301"><defs><style>.a{fill:#66b979;}</style></defs><g transform="translate(0.173 0.301)"><g transform="translate(6.15 16.402)"><g transform="translate(0 0)"><path class="a" d="M95.838,202.252h-29a2.952,2.952,0,0,0-3,3v3c0,7.316,4.5,13.635,11,17,.5.258.74-.5,1-1s.5-.74,0-1c-5.819-3.01-10-8.453-10-15v-3a.983.983,0,0,1,1-1h29a.983.983,0,0,1,1,1v3a16.25,16.25,0,0,1-9,15c-.5.26-1.258.5-1,1,.183.353.629,1,1,1,.16,0-.15.078,0,0,6.506-3.363,11-9.682,11-17v-3A2.952,2.952,0,0,0,95.838,202.252Z" transform="translate(-63.988 -202.654)"/></g></g><g transform="translate(0 36.903)"><g transform="translate(0)"><path class="a" d="M47,417.063c-.16-.383-.586-1-1-1H1c-.414,0-.84.617-1,1s-.293.707,0,1l3,2a6.868,6.868,0,0,0,5,2H39c1.917,0,4.641-.645,6-2l2-2C47.293,417.77,47.16,417.446,47,417.063Zm-4,2c-.968.968-2.632,1-4,1H8c-1.368,0-3.032-.032-4-1l-1-1H44Z" transform="translate(0 -415.966)"/></g></g><g transform="translate(34.128 20.498)"><g transform="translate(0 0)"><path class="a" d="M367.965,245.775c-2.762-1.776-6.506.777-7,1-.515.236-1.236.483-1,1s.481.236,1,0c.988-.449,4.45-1,6,0,.7.449,1,1.663,1,3,0,4.1-7.8,6.389-11,7h-1c-.556.109-1.109.444-1,1a1.2,1.2,0,0,0,1,1c.066,0-.068.014,0,0h1c.537-.1,13-2.365,13-9C369.965,248.712,369.279,246.623,367.965,245.775Z" transform="translate(-355.093 -245.272)"/></g></g><g transform="translate(28.705 0)"><g transform="translate(0 0)"><path class="a" d="M301.961,40a7.024,7.024,0,0,0,0-8c-.355-.443-1.555-.357-2,0s-.355,1.557,0,2a4.338,4.338,0,0,1,0,5,5.519,5.519,0,0,0,0,7c.2.254.7,0,1,0,.223,0-.189.152,0,0,.443-.355,1.355-.559,1-1A4.332,4.332,0,0,1,301.961,40Z" transform="translate(-298.666 -32.001)"/></g></g><g transform="translate(22.547 0.001)"><path class="a" d="M237.05,40.009a7.017,7.017,0,0,0,0-8c-.353-.443-.557-.355-1,0s-.355,1.559,0,2a4.332,4.332,0,0,1,0,5,5.524,5.524,0,0,0,0,7c.2.254.7,0,1,0,.223,0-.191.152,0,0,.443-.355.355-.557,0-1A4.338,4.338,0,0,1,237.05,40.009Z" transform="translate(-234.597 -32.009)"/></g><g transform="translate(16.403 0.002)"><g transform="translate(0 0)"><path class="a" d="M173.263,40.02a7.024,7.024,0,0,0,0-8c-.353-.443-.555-.357-1,0s-.353,1.559,0,2a4.338,4.338,0,0,1,0,5,5.519,5.519,0,0,0,0,7c.2.254-.3,0,0,0,.223,0,.811.15,1,0,.443-.355.355-.559,0-1A4.332,4.332,0,0,1,173.263,40.02Z" transform="translate(-170.666 -32.022)"/></g></g></g></svg>