<svg xmlns="http://www.w3.org/2000/svg" xmlns:xlink="http://www.w3.org/1999/xlink" viewBox="0 0 466 381"><defs><style>.a,.d{fill:#fff;font-family:HelveticaNeue-Medium, Helvetica Neue;font-weight:500;}.a{font-size:38px;}.b{fill:red;}.c{fill:#f90000;}.d{font-size:71px;}.e{filter:url(#c);}.f{filter:url(#a);}</style><filter id="a" x="53" y="24" width="413" height="342" filterUnits="userSpaceOnUse"><feOffset input="SourceAlpha"/><feGaussianBlur stdDeviation="49.5" result="b"/><feFlood/><feComposite operator="in" in2="b"/><feComposite in="SourceGraphic"/></filter><filter id="c" x="0" y="0" width="337" height="381" filterUnits="userSpaceOnUse"><feOffset input="SourceAlpha"/><feGaussianBlur stdDeviation="49.5" result="d"/><feFlood/><feComposite operator="in" in2="d"/><feComposite in="SourceGraphic"/></filter></defs><g transform="translate(-281.05 -592.5)"><g class="f" transform="matrix(1, 0, 0, 1, 281.05, 592.5)"><text class="a" transform="translate(201.5 209.5)"><tspan x="0" y="0">places</tspan></text></g><path class="b" d="M30.55,79c-4.7-4.2-28-26.177-28-48a28,28,0,1,1,56,0C58.55,53.193,35.258,74.861,30.55,79Zm0-64c-8.439,0-15,7.561-15,16a14.806,14.806,0,0,0,15,15,14.806,14.806,0,0,0,15-15C45.55,22.561,38.989,15,30.55,15Zm-13,16a13.2,13.2,0,0,1,13-13,13.2,13.2,0,0,1,13,13C43.55,38.031,17.55,38.031,17.55,31Z" transform="translate(419 756)"/><circle class="c" cx="19.5" cy="19.5" r="19.5" transform="translate(430.55 769)"/><g class="e" transform="matrix(1, 0, 0, 1, 281.05, 592.5)"><text class="d" transform="translate(148.5 217.5)"><tspan x="0" y="0">e</tspan></text></g></g></svg>