<svg xmlns="http://www.w3.org/2000/svg" xmlns:xlink="http://www.w3.org/1999/xlink" viewBox="0 0 56 76"><defs><style>.a{fill:none;}.b{fill:#f90000;}.c{fill:red;}.d{clip-path:url(#a);}.e{fill:#fdfcfc;font-size:71px;font-family:HelveticaNeue-Medium, Helvetica Neue;font-weight:500;}</style><clipPath id="a"><rect class="a" width="39" height="44" transform="translate(827 4375)"/></clipPath></defs><g transform="translate(-932 -4421)"><circle class="b" cx="19.5" cy="19.5" r="19.5" transform="translate(941 4431)"/><path class="c" d="M30.55,79c-4.7-4.2-28-26.177-28-48a28,28,0,0,1,56,0C58.55,53.193,35.258,74.861,30.55,79Zm0-64c-8.439,0-15,7.561-15,16a14.806,14.806,0,0,0,15,15,14.806,14.806,0,0,0,15-15C45.55,22.561,38.989,15,30.55,15Zm-13,16a13.2,13.2,0,0,1,13-13,13.2,13.2,0,0,1,13,13C43.55,38.031,17.55,38.031,17.55,31Z" transform="translate(929.45 4418)"/><g class="d" transform="translate(114 55)"><text class="e" transform="translate(826 4346)"><tspan x="0" y="69">e</tspan></text></g></g></svg>