<svg xmlns="http://www.w3.org/2000/svg" viewBox="0 0 32 32"><defs><style>.a{fill:#66b979;}</style></defs><path class="a" d="M11,0A11.387,11.387,0,0,0,0,11c0,5.79,5.21,10,11,10a10.492,10.492,0,0,0,7-3c.022.039-.034-.034,0,0l2,3c-.18.3,0,.637,0,1,0,.534-.378.622,0,1l9,8c.377.377.466,1,1,1s.622-.622,1-1,1-.466,1-1-.622-.622-1-1l-8-9c-.634-.634-1.239-.43-2,0l-3-2c-.034-.034.04.022,0,0a10.492,10.492,0,0,0,3-7C21,5.21,16.79,0,11,0ZM22,21l9,8c.189.189,0,.733,0,1s.189.811,0,1a1.91,1.91,0,0,1-2,0l-8-9c-.188-.189,0,.267,0,0s-.189-.811,0-1,.733,0,1,0S21.81,20.811,22,21ZM11,20C5.762,20,1,16.238,1,11A10.389,10.389,0,0,1,11,1c5.238,0,9,4.762,9,10A8.679,8.679,0,0,1,11,20ZM11,3a8.391,8.391,0,0,0-8,8c0,4.136,3.864,7,8,7a6.682,6.682,0,0,0,7-7C18,6.864,15.136,3,11,3Zm0,14c-3.584,0-7-2.416-7-6a7.4,7.4,0,0,1,7-7c3.584,0,6,3.416,6,7A5.685,5.685,0,0,1,11,17Z"/></svg>