<svg xmlns="http://www.w3.org/2000/svg" viewBox="0 0 34.327 26.154"><defs><style>.a{fill:#d90303;}</style></defs><path class="a" d="M31.875,0A2.442,2.442,0,0,0,30.25,4.274L23.057,15.742a2.422,2.422,0,0,0-2.782.578l-7.416-4.7a2.429,2.429,0,0,0,.217-1,2.452,2.452,0,1,0-4.051,1.844l-5.635,8.97a2.429,2.429,0,0,0-.939-.189,2.478,2.478,0,1,0,1.626.631L9.721,12.9a2.415,2.415,0,0,0,2.682-.6l7.42,4.7a2.453,2.453,0,1,0,3.914-.805l7.2-11.48A2.451,2.451,0,1,0,31.875,0ZM4.087,23.7a1.635,1.635,0,1,1-1.635-1.635A1.636,1.636,0,0,1,4.087,23.7ZM10.625,12.26a1.635,1.635,0,1,1,1.635-1.635A1.636,1.636,0,0,1,10.625,12.26Zm11.442,7.356A1.635,1.635,0,1,1,23.7,17.981,1.636,1.636,0,0,1,22.068,19.616ZM31.875,4.087A1.635,1.635,0,1,1,33.51,2.452,1.636,1.636,0,0,1,31.875,4.087Z"/></svg>