<svg xmlns="http://www.w3.org/2000/svg" viewBox="0 0 32 43"><defs><style>.a{fill:#66b979;}</style></defs><g transform="translate(3.254 14.046)"><path class="a" d="M24.321,39.719h-12a6.255,6.255,0,0,1-6-6v-22a1.4,1.4,0,0,1,1-1h22a1.4,1.4,0,0,1,1,1v22A6.256,6.256,0,0,1,24.321,39.719Zm-16-28v22c0,2.41,1.59,5,4,5h12c2.41,0,4-2.59,4-5v-22Z" transform="translate(-6.575 -10.765)"/><path class="a" d="M27.168,28.358h-3c-.36,0-1,.36-1,0a1.4,1.4,0,0,1,1-1h3a1.786,1.786,0,0,0,2-2v-6c0-1.313-.689-3-2-3h-3c-.36,0-1,.36-1,0a1.4,1.4,0,0,1,1-1h3c2.031,0,3,1.969,3,4v6C30.168,27.389,29.2,28.358,27.168,28.358Z" transform="translate(-1.422 -9.403)"/><g transform="translate(5.612 5.775)"><path class="a" d="M12.01,32.371a1.4,1.4,0,0,1-1-1v-16c0-.36.64,0,1,0s0-.36,0,0v16C12.01,31.732,12.37,32.371,12.01,32.371Z" transform="translate(-10.876 -15.191)"/><path class="a" d="M19.479,32.371c-.36,0,0-.64,0-1v-16c0-.36-.36,0,0,0s1-.36,1,0v16A1.4,1.4,0,0,1,19.479,32.371Z" transform="translate(-8.345 -15.191)"/><path class="a" d="M15.745,32.371a1.4,1.4,0,0,1-1-1v-16c0-.36.64,0,1,0s1-.36,1,0v16A1.4,1.4,0,0,1,15.745,32.371Z" transform="translate(-9.61 -15.191)"/></g></g><path class="a" d="M30.081,15h-22a3.822,3.822,0,0,1-4-4,3.823,3.823,0,0,1,4-4h1c.438-3.857,3.053-7,7-7a7.79,7.79,0,0,1,6,3c.635-.27,1.328-1,2-1,2.547,0,4.579,2.539,5,5h1a3.822,3.822,0,0,1,4,4A3.822,3.822,0,0,1,30.081,15Zm-22-7a3,3,0,0,0,0,6h22a3,3,0,0,0,0-6h-1a1.48,1.48,0,0,1-1-1c-.107-2.069-1.939-3-4-3-.633,0-1.4-.329-2,0-.291.162-.812.275-1,0a6.157,6.157,0,0,0-5-3,5.9,5.9,0,0,0-6,6,1.453,1.453,0,0,1-1,1Z" transform="translate(-4.081)"/></svg>