<svg xmlns="http://www.w3.org/2000/svg" viewBox="0 0 43.781 43.904"><defs><style>.a{fill:#fdfcfc;}</style></defs><path class="a" d="M44.107,30.311A2.182,2.182,0,0,0,42,28.785h-.967V5.166a.738.738,0,0,0-.738-.738H29.964V.738A.738.738,0,0,0,29.226,0H1.179A.738.738,0,0,0,.441.738V39.118a.738.738,0,0,0,.738.738H25.565L25.2,40.994A2.214,2.214,0,0,0,28.6,43.472l3.869-2.818a.744.744,0,0,1,.878,0l3.876,2.819a2.215,2.215,0,0,0,3.408-2.479l-1.482-4.566a.73.73,0,0,1,.271-.818l3.883-2.819A2.187,2.187,0,0,0,44.107,30.311ZM39.559,5.9v22.88H37.2a.733.733,0,0,1-.228-.037.752.752,0,0,1-.472-.471l-1.484-4.562a2.214,2.214,0,0,0-4.207,0l-.849,2.608V19.19h5.9a.738.738,0,1,0,0-1.476h-5.9V14.761h5.9a.738.738,0,1,0,0-1.476h-5.9V10.333h5.9a.738.738,0,1,0,0-1.476h-5.9V5.9ZM1.918,38.379V1.476h26.57V28.785H23.831a2.214,2.214,0,0,0-1.3,4.007l3.882,2.819a.731.731,0,0,1,.272.821l-.634,1.948ZM42.437,31.6l-3.882,2.819a2.2,2.2,0,0,0-.806,2.47l1.484,4.561a.738.738,0,0,1-1.137.828l-3.878-2.821a2.233,2.233,0,0,0-2.608,0l-3.874,2.819a.738.738,0,0,1-1.137-.827l1.483-4.559a2.2,2.2,0,0,0-.807-2.474L23.4,31.6a.738.738,0,0,1,.435-1.338h4.8a2.063,2.063,0,0,0,.89-.194l.014-.008.013,0c.01,0,.018-.013.028-.019a2.192,2.192,0,0,0,1.159-1.3l1.484-4.561a.738.738,0,0,1,1.4,0L35.1,28.736a2.215,2.215,0,0,0,2.1,1.525H42a.738.738,0,0,1,.436,1.337Zm0,0" transform="translate(-0.441)"/><path class="a" d="M65.179,65.476H81.417a.738.738,0,0,0,0-1.476H65.179a.738.738,0,0,0,0,1.476Zm0,0" transform="translate(-58.537 -58.095)"/><path class="a" d="M65.179,129.476H81.417a.738.738,0,1,0,0-1.476H65.179a.738.738,0,0,0,0,1.476Zm0,0" transform="translate(-58.537 -116.191)"/><path class="a" d="M65.179,193.476H81.417a.738.738,0,0,0,0-1.476H65.179a.738.738,0,1,0,0,1.476Zm0,0" transform="translate(-58.537 -174.286)"/><path class="a" d="M82.155,256.738a.738.738,0,0,0-.738-.738H65.179a.738.738,0,1,0,0,1.476H81.417A.738.738,0,0,0,82.155,256.738Zm0,0" transform="translate(-58.537 -232.382)"/></svg>