<svg xmlns="http://www.w3.org/2000/svg" viewBox="0 0 21.971 25.109"><defs><style>.a{fill:#fff;}</style></defs><path class="a" d="M23.955,5.351a2.346,2.346,0,0,0-2.338-2.21H19.263V2.355A2.354,2.354,0,0,0,16.909,0H9.062A2.354,2.354,0,0,0,6.708,2.355V3.14H4.354A2.346,2.346,0,0,0,2.015,5.35H2V7.063A1.57,1.57,0,0,0,3.569,8.632h0V21.972A3.139,3.139,0,0,0,6.708,25.11H19.263A3.139,3.139,0,0,0,22.4,21.972V8.632a1.57,1.57,0,0,0,1.569-1.569V5.351h-.016Zm-15.678-3a.784.784,0,0,1,.785-.785h7.847a.784.784,0,0,1,.785.785V3.14H8.277V2.356ZM20.832,21.972a1.572,1.572,0,0,1-1.569,1.569H6.708a1.571,1.571,0,0,1-1.569-1.569V8.633H20.832ZM22.4,6.278v.785H3.569V5.494a.784.784,0,0,1,.785-.785H21.617a.784.784,0,0,1,.785.785ZM7.493,21.976H9.062a.784.784,0,0,0,.785-.785V10.99a.784.784,0,0,0-.785-.785H7.493a.784.784,0,0,0-.785.785v10.2A.784.784,0,0,0,7.493,21.976Zm0-10.986H9.062v10.2H7.493v-10.2ZM12.2,21.976H13.77a.784.784,0,0,0,.785-.785V10.99a.784.784,0,0,0-.785-.785H12.2a.784.784,0,0,0-.785.785v10.2A.784.784,0,0,0,12.2,21.976Zm0-10.986H13.77v10.2H12.2v-10.2Zm4.708,10.986h1.569a.784.784,0,0,0,.785-.785V10.99a.784.784,0,0,0-.785-.785H16.909a.784.784,0,0,0-.785.785v10.2A.784.784,0,0,0,16.909,21.976Zm0-10.986h1.569v10.2H16.909v-10.2Z" transform="translate(-2 -0.001)"/></svg>