<svg xmlns="http://www.w3.org/2000/svg" viewBox="0 0 30.041 30.041"><defs><style>.a{fill:#cbc8c8;}.b{fill:#f4f4f4;}</style></defs><ellipse class="a" cx="15.021" cy="15.021" rx="15.021" ry="15.021" transform="translate(0 0)"/><g transform="translate(6.721 9.111)"><path class="b" d="M42.6,35.712a7.163,7.163,0,0,1-2.062.565A3.6,3.6,0,0,0,42.12,34.29a7.187,7.187,0,0,1-2.28.871,3.593,3.593,0,0,0-6.118,3.275,10.192,10.192,0,0,1-7.4-3.752,3.594,3.594,0,0,0,1.111,4.794,3.565,3.565,0,0,1-1.626-.45c0,.015,0,.031,0,.046a3.592,3.592,0,0,0,2.88,3.52,3.6,3.6,0,0,1-1.621.062,3.594,3.594,0,0,0,3.354,2.493A7.248,7.248,0,0,1,25.1,46.637a10.21,10.21,0,0,0,15.719-8.6c0-.156,0-.311-.01-.464A7.281,7.281,0,0,0,42.6,35.712Z" transform="translate(-25.103 -34.028)"/></g></svg>